<?xml version="1.0" encoding="UTF-8"?>
<svg id="Ebene_1" xmlns="http://www.w3.org/2000/svg" version="1.1" viewBox="0 0 255.1 85">
  <!-- Generator: Adobe Illustrator 29.3.1, SVG Export Plug-In . SVG Version: 2.1.0 Build 151)  -->
  <defs>
    <style>
      .st0 {
        stroke: #e84928;
      }

      .st0, .st1 {
        fill: none;
        stroke-miterlimit: 10;
      }

      .st2 {
        fill: #cc9375;
      }

      .st1 {
        stroke: #010101;
        stroke-width: .5px;
      }

      .st3 {
        fill: #89b3ac;
      }
    </style>
  </defs>
  <g>
    <path class="st0" d="M88.3,27"/>
    <path class="st1" d="M88.3,27"/>
    <path class="st1" d="M88.3,27"/>
    <path class="st1" d="M88.3,27"/>
    <path class="st3" d="M144.4,36c-.8-2-2-3.7-3.5-5.2-1.5-1.5-3.3-2.7-5.4-3.5-2.1-.9-4.3-1.3-6.8-1.3s-4.7.4-6.8,1.2c-2.1.8-4,2-5.6,3.5-1.6,1.5-2.8,3.3-3.8,5.5-.9,2.1-1.4,4.5-1.4,7.1s.4,4.3,1.2,6.3c.8,2,2,3.7,3.5,5.2,1.5,1.5,3.3,2.7,5.5,3.5,2.1.9,4.5,1.3,7.1,1.3s4.5-.4,6.6-1.2c2.1-.8,3.9-1.9,5.5-3.4,1.6-1.5,2.8-3.3,3.8-5.4.9-2.1,1.4-4.5,1.4-7.2s-.4-4.3-1.2-6.3ZM128.4,57.7c-3.8,0-6.9-6.7-6.9-15s3.1-15,6.9-15,6.9,6.7,6.9,15-3.1,15-6.9,15Z"/>
    <path class="st3" d="M91.9,27.5v5.1s2.9-6.5,10.1-6.6,7.5,7.6,7.5,7.6c0,0,1.1,9-6.2,8.9-7.3,0-5.2-7.3-5.2-7.3,0,0,1.2-4.3,1.1-4.6-.2-2.4-3.8,1-5,2.3-1.2,1.3-2.2,3.6-2.2,5.2s0,20.1,0,20.8-11.7.8-11.7.1,0-23.6,0-27.2,11.6-5.2,11.6-4.3Z"/>
    <path class="st3" d="M77.3,38c0-1.6-.4-8.7-5.2-10.8-3.5-1.5-7.8-1.3-10.9-1.3s-3.2.2-4.7.7c-1.5.5-2.9,1.1-4,1.9-1.2.8-2.1,1.7-2.8,2.8-.7,1.1-1.1,2.2-1.1,3.4s.4,5.1,4.6,5.2c2.4,0,4.7-1.6,4.8-3.6.2-1.7-.6-2.4-1.3-3.5-.7-1.1,1.7-4,3.9-4,3.9,0,5.9,2.5,5.9,7.5v3c-12.7,2.3-19.1,6.6-19.1,12.9s.6,4.4,1.9,5.5c1.3,1.2,3.3,1.7,6,1.7,4,0,7.6-1.6,11.2-4.8,0,2.3,0,3.8,0,4,0,.7,10.9.6,10.8-.1,0-.7,0-19.3,0-20.8ZM60.5,55.1c-1.1,0-3.8-1-3.8-4.3.4-4.8,9.9-9,9.9-8.5s1.1,12.6-6,12.8Z"/>
    <path class="st3" d="M50.2,61.6c-5,1.2-8-8.6-8-8.6-3-9.6-8.1-11.5-10.4-11.8,4.7-3.3,12-8.9,13.4-12.9.2-.7,0-2.3-1-2.6-1.4-.5-11.9-.6-13.8.5-1.7,1.9,4.6,3.7,4.6,4.8s-.4,1.5-1.3,2.6c-.9,1-1.9,2.1-3.1,3.3-1.2,1.2-2.5,2.3-3.9,3.3-.8.6-1.6,1.2-2.3,1.7,0-7.2,0-14.8,0-15.2,0-.8-11.8-.7-11.7.1,0,.8.1,31.6.1,32.6s11.6-.8,11.6-4.7,0-4.7,0-8.6c5.9-3.2,7.4,6.1,8.6,10.6,1.9,13.8,10.5,12.5,10.5,12.5,8.5-1.4,6.7-7.3,6.7-7.3Z"/>
    <g>
      <path class="st2" d="M185.2,28.6c1.8,0,3.3-1.4,3.3-3.2,0-1.8-1.4-3.3-3.2-3.3-1.8,0-3.3,1.4-3.3,3.2,0,1.8,1.4,3.3,3.2,3.3Z"/>
      <path class="st2" d="M241.9,44.6c-.9.7-6.2,8.2-6.2,8.2-5.4,7.7-6.7-1.1-6.7-1.1l.5-17.1h7.2c0,0,0-3,0-3h-7.4c0-1.4.5-13.7.5-13.7h-3.4c-.4,4.1-.6,13.6-.6,13.6h-3.4s0,3.1,0,3.1h3.5s-.7,10.5-.7,10.5c-4.9,7.6-10,2.9-10,2.9v-8.6c0,0,14.5-30.3,5-31-9.5-.7-10.5,21-10.5,21v15.4c-8.3,19.3-10,5.5-10,5.5l-.2-9.5s12.5-31.8,3.5-32.5c-8.9-.7-8.7,37.7-8.7,37.7,0,0-11.5,22.1-9.6,3.2,1.7-17.3.7-16.9.1-17.4-.5-.5-2.2-.2-2.6,1.4-.7,2.3-3,8.7-3.5,10.3-.6,1.6-7.9,13.8-8.9,11.8-1-2,1-12.2,1-12.2,0,0,1.8-12.1-4.7-11.6-6.6.5-10.1,8.3-10.1,8.3,7.6-30.1,3.1-31.5-.3-31.5-5.3,0-4.7,11.2-4.7,11.2,0,0,1.6,26.8-3.5,39-.9,2.1.3,2.6,2.8,2.4,2.5-.2,5.9-16.4,5.9-16.4,0,0,1.7-5.5,5.8-9,4.1-3.5,4.9,0,4.7,1.8-.2,1.9-1.9,16.3-1.9,16.3,0,0-.6,5.3,3.8,6.1,5,.9,11.4-13.3,11.4-13.3-.2,10.3,1.2,12.6,5.1,13.4,3.8.8,8.2-7.5,9-9.2.6-1.3,1-1.1,1.1-.5.1.5.6,9.5,5.2,9.7s8.1-7.6,9-9.7c.9-2.1,1.5-1.5,1.4-.6,0,.8-.2,27.9-.2,27.9h4.7s.2-25.6.2-25.6c7.2.7,9.3-2.9,9.3-2.9,0,0-1.4,9.6,4.5,10.9,5.9,1.4,11.6-9.3,12.6-11.1,1-1.8.8-4.7,0-4.1ZM155,13.4c2-3.8,4,2.6.3,20,0,0-2-16.8-.3-20ZM198.1,37s1.7-21.8,4.1-24.2c3.8-3.9,3.3,7-4.1,24.2ZM218.2,12.8c3.8-3.9,3.3,7-4.1,24.2,0,0,1.7-21.8,4.1-24.2Z"/>
    </g>
  </g>
  <g>
    <path class="st3" d="M158.3,68.9h2.3v5.2c-1.4,1.1-3.2,1.6-5.1,1.6-4,0-7-2.8-7-6.7s3-6.7,7-6.7,4,.7,5.2,2.1l-1.5,1.5c-1-1-2.2-1.5-3.6-1.5-2.8,0-4.7,1.9-4.7,4.6s1.9,4.6,4.7,4.6,1.8-.2,2.7-.7v-4Z"/>
    <path class="st3" d="M180,69.8v5.7h-2.3v-5.4c0-1.8-.8-2.6-2.2-2.6s-2.6,1-2.6,3v5h-2.3v-5.4c0-1.8-.8-2.6-2.2-2.6s-2.6,1-2.6,3v5h-2.3v-9.9h2.2v1.3c.7-.9,1.9-1.4,3.2-1.4s2.6.5,3.3,1.6c.8-1,2.1-1.6,3.7-1.6,2.4,0,4.1,1.4,4.1,4.3Z"/>
    <path class="st3" d="M193.5,70.6c0,3.1-2.1,5.1-5,5.1s-2.5-.5-3.3-1.4v1.3h-2.2v-13.7h2.3v5.1c.8-.9,1.9-1.3,3.2-1.3,2.9,0,5,2,5,5.1ZM191.2,70.6c0-1.9-1.3-3.1-2.9-3.1s-2.9,1.2-2.9,3.1,1.3,3.1,2.9,3.1,2.9-1.2,2.9-3.1Z"/>
    <path class="st3" d="M207.4,62.6v13h-2.4v-5.6h-6.7v5.6h-2.4v-13h2.4v5.3h6.7v-5.3h2.4Z"/>
  </g>
</svg>